<?xml version="1.0" encoding="utf-8"?>
<!-- Generator: Adobe Illustrator 15.0.0, SVG Export Plug-In . SVG Version: 6.00 Build 0)  -->
<!DOCTYPE svg PUBLIC "-//W3C//DTD SVG 1.1//EN" "http://www.w3.org/Graphics/SVG/1.1/DTD/svg11.dtd">
<svg version="1.1" id="Слой_1" xmlns="http://www.w3.org/2000/svg" xmlns:xlink="http://www.w3.org/1999/xlink" x="0px" y="0px"
	 width="300px" height="209.167px" viewBox="49.264 0 300 209.167" enable-background="new 49.264 0 300 209.167"
	 xml:space="preserve">
	<g id="child-box">
<g id="hands-with-box">
	<path fill="#E8C8B3" stroke="#231F20" stroke-linecap="round" stroke-linejoin="round" stroke-miterlimit="10" d="M165.208,69.155
		c0,0-6.455,14.943,3.974,29.846c10.429,14.902,27.667,13.979,27.667,13.979l0.666-13.001c0,0-16.605,1.833-21.933-6.827
		c-6.424-10.443-3.294-23.489-3.294-23.489L165.208,69.155z"/>
	<path opacity="0.3" fill="#231F20" enable-background="new    " d="M173.371,88.539c0,0-5.437-2.125-9.612-2.374
		c-0.453-3.653-0.892-12.472,1.005-14.41c2.652,0.828,7.407,3.078,7.407,3.078S170.992,82.161,173.371,88.539z"/>
	<path fill="#E8C8B3" stroke="#231F20" stroke-linecap="round" stroke-linejoin="round" stroke-miterlimit="10" d="M218.823,117.321
		c0,0,18.913-1.424,28.627-16.801c9.715-15.377,2.201-30.919,2.201-30.919l-8.475,2.568c0,0,4.334,16.449-1.596,24.708
		c-7.148,9.96-21.582,9.787-21.582,9.787L218.823,117.321z"/>
	<path fill="#E8C8B3" stroke="#231F20" stroke-linecap="round" stroke-linejoin="round" stroke-miterlimit="10" d="M252.646,47.652
		c0,0,2.263-1.442,3.547,1.57c1.285,3.012-1.058,5.342-0.612,9.808C253.797,58.263,247.681,50.631,252.646,47.652z"/>
	<path opacity="0.3" fill="#231F20" enable-background="new    " d="M242.643,82.08c0,0,7.777-1.795,9.537-2.906
		c-0.364-2.396-0.92-4.894-0.92-4.894l-9.322,1.033C241.938,75.313,242.588,80.539,242.643,82.08z"/>
	<path fill="#AE9686" stroke="#231F20" stroke-linecap="round" stroke-linejoin="round" stroke-miterlimit="10" d="M161.994,45.653
		c0,0-2.25-1.463-3.563,1.537s1.007,5.351,0.521,9.813C160.744,56.253,166.931,48.679,161.994,45.653z"/>
	<path fill="#F2EFE5" stroke="#231F20" stroke-linecap="round" stroke-linejoin="round" stroke-miterlimit="10" d="M240.086,8.295
		l16.5,14.333l-4.5,22.333l-2.834,33l-7.653-6.917C241.599,71.045,233.42,46.461,240.086,8.295z"/>
	<path fill="#EAE5D3" stroke="#231F20" stroke-linecap="round" stroke-linejoin="round" stroke-miterlimit="10" d="M157.336,17.295
		l5,33l2.428,29.25c0,0,60.265-7.25,76.835-8.5c-0.431-7-1.513-29.75-1.513-29.75v-33C240.086,8.295,210.253,7.295,157.336,17.295z"
		/>
	<path fill="#E8C8B3" stroke="#231F20" stroke-linecap="round" stroke-linejoin="round" stroke-miterlimit="10" d="M169.916,50.068
		c0,0-0.382-1.433-2.484-0.86c-2.103,0.573-10.096,3.836-11.063,8.503c-0.583,2.814,3.229,5.351,3.229,5.351s2.675-4.586,4.49-6.306
		C165.903,55.036,171.361,54.583,169.916,50.068"/>
	<path fill="#E8C8B3" stroke="#231F20" stroke-linecap="round" stroke-linejoin="round" stroke-miterlimit="10" d="M172.527,56.067
		c0,0-0.154-2.239-2.326-2.065c-2.172,0.174-4.902,0.762-7.413,1.771c-2.913,1.17-4.279,2.707-5.767,5.44
		c-1.487,2.734,2.915,4.953,2.915,4.953s3.478-4.012,5.58-5.366S172.94,60.79,172.527,56.067"/>
	<path fill="#E8C8B3" stroke="#231F20" stroke-linecap="round" stroke-linejoin="round" stroke-miterlimit="10" d="M172.124,62.836
		c0,0,0.703-3.176-3.297-3.176c-2.928,0-8.873,1.794-10.692,4.319c-3.079,4.273,3.733,5.427,3.733,5.427s0.061-3.657,4.505-3.986
		C168.868,65.237,171.785,65.128,172.124,62.836"/>
	<path fill="#E8C8B3" stroke="#231F20" stroke-linecap="round" stroke-linejoin="round" stroke-miterlimit="10" d="M171.619,67.315
		c0,0-0.018-2.039-2.424-2.258c-1.597-0.145-2.971-0.318-5.082,0.32c-1.897,0.574-3.179,1.082-4.37,3
		c-2.562,4.125,4.584,5.902,4.584,5.902s-1.802-3.558,2.334-4.463C168.458,69.424,170.931,70.315,171.619,67.315"/>
	<path fill="#E8C8B3" stroke="#231F20" stroke-linecap="round" stroke-linejoin="round" stroke-miterlimit="10" d="M246.89,51.454
		c0,0,0.585-1.363,2.582-0.491c1.998,0.872,9.433,5.259,9.714,10.017c0.169,2.869-3.971,4.826-3.971,4.826s-1.981-4.925-3.528-6.89
		S244.806,55.711,246.89,51.454"/>
	<path fill="#E8C8B3" stroke="#231F20" stroke-linecap="round" stroke-linejoin="round" stroke-miterlimit="10" d="M243.437,57.012
		c0,0,0.478-2.193,2.601-1.706c2.125,0.487,4.74,1.464,7.078,2.827c2.713,1.58,3.842,3.298,4.918,6.219
		c1.074,2.921-3.603,4.478-3.603,4.478s-2.859-4.473-4.744-6.118C247.801,61.067,242.344,61.625,243.437,57.012"/>
	<path fill="#E8C8B3" stroke="#231F20" stroke-linecap="round" stroke-linejoin="round" stroke-miterlimit="10" d="M242.854,63.768
		c0,0-0.236-3.244,3.723-2.665c2.896,0.424,8.519,3.062,9.952,5.823c2.427,4.674-4.479,4.829-4.479,4.829s0.47-3.627-3.881-4.597
		C245.729,66.615,242.857,66.084,242.854,63.768"/>
	<path fill="#231F20" stroke="#231F20" stroke-linecap="round" stroke-linejoin="round" stroke-miterlimit="10" d="M164.764,79.545
		c0,0,6.175,0.416,7.786,4.083c6.611-1.083,48.879-7.75,76.703-5.667c-2.362-2.135-7.653-7.167-7.653-7.167
		S178.868,77.378,164.764,79.545z"/>
	<path fill="#E8C8B3" stroke="#231F20" stroke-linecap="round" stroke-linejoin="round" stroke-miterlimit="10" d="M243.293,68.222
		c0,0-0.275-1.964,2.138-1.832c1.601,0.088,2.985,0.115,4.981,1.053c1.795,0.843,2.988,1.531,3.889,3.602
		c1.938,4.453-4.9,5.192-4.9,5.192s0.844-4.015-2.152-4.771C245.463,71.017,243.284,71.065,243.293,68.222"/>
	<path fill="none" stroke="#231F20" stroke-width="0.5" stroke-linecap="round" stroke-linejoin="round" stroke-miterlimit="10" d="
		M168.25,56.067c0,0-0.083,1.766,1.083,1.683"/>
	<path fill="none" stroke="#231F20" stroke-width="0.5" stroke-linecap="round" stroke-linejoin="round" stroke-miterlimit="10" d="
		M169.333,61.034c0,0-0.583,1.257,0,2.028"/>
	<path fill="none" stroke="#231F20" stroke-width="0.5" stroke-linecap="round" stroke-linejoin="round" stroke-miterlimit="10" d="
		M166,51.667c0,0,0.75,1.25,1.75,0.5"/>
	<path fill="none" stroke="#231F20" stroke-width="0.5" stroke-linecap="round" stroke-linejoin="round" stroke-miterlimit="10" d="
		M168.249,66.688c0,0-0.216,1.375,0.955,1.375"/>
	<path fill="none" stroke="#231F20" stroke-width="0.5" stroke-linecap="round" stroke-linejoin="round" stroke-miterlimit="10" d="
		M250.583,53.168c0,0-0.193,1.999-1.617,1.374"/>
	<path fill="none" stroke="#231F20" stroke-width="0.5" stroke-linecap="round" stroke-linejoin="round" stroke-miterlimit="10" d="
		M247.792,57.375c0,0-0.166,1.976-1.041,1.655c-0.875-0.321-1.75-0.791-1.75-0.791"/>
	<path fill="none" stroke="#231F20" stroke-width="0.5" stroke-linecap="round" stroke-linejoin="round" stroke-miterlimit="10" d="
		M247.208,62.704c0,0-0.84,1.171-0.795,1.63c0.047,0.459-0.871,0.083-1.412-0.292"/>
	<path fill="none" stroke="#231F20" stroke-width="0.5" stroke-linecap="round" stroke-linejoin="round" stroke-miterlimit="10" d="
		M247.028,67.5c0,0-0.41,0.458-0.615,1.125c-0.203,0.667-1.412,0.204-1.412,0.204"/>
	
		<line fill="none" stroke="#231F20" stroke-width="0.5" stroke-linecap="round" stroke-linejoin="round" stroke-miterlimit="10" x1="240.086" y1="19.5" x2="245" y2="12.563"/>
	
		<line fill="none" stroke="#231F20" stroke-width="0.5" stroke-linecap="round" stroke-linejoin="round" stroke-miterlimit="10" x1="249.774" y1="16.711" x2="240.086" y2="28.875"/>
	<path fill="none" stroke="#231F20" stroke-width="0.5" stroke-linecap="round" stroke-linejoin="round" stroke-miterlimit="10" d="
		M240.086,37.5c0,0,3.074-3.618,6.789-7.75c3.707-4.125,6.789-9.661,6.789-9.661"/>
	<path fill="none" stroke="#231F20" stroke-width="0.5" stroke-linecap="round" stroke-linejoin="round" stroke-miterlimit="10" d="
		M255.223,29.395c0,0-3.049,3.23-5.448,7.48"/>
	
		<line fill="none" stroke="#231F20" stroke-width="0.5" stroke-linecap="round" stroke-linejoin="round" stroke-miterlimit="10" x1="247.792" y1="38.5" x2="240.411" y2="47.999"/>
	<path fill="none" stroke="#231F20" stroke-width="0.5" stroke-linecap="round" stroke-linejoin="round" stroke-miterlimit="10" d="
		M160.945,20.089c0,0,5.967-1.339,11.824-1.964"/>
	<path opacity="0.3" fill="#231F20" enable-background="new    " d="M243.833,70.795c0,0,4.474,4.262,5.133,5.442
		C249.292,74.958,250.958,71.756,243.833,70.795z"/>
	<path opacity="0.3" fill="#231F20" enable-background="new    " d="M158.023,55.235c0,0-1.109,4.055,1.027,3.004
		c-0.801,1.636-1.655,4.655,0.762,3.809c-0.625,1.765-1.763,5.304,2.222,4.119c-0.722,1.583-1.684,3.915,2.36,4.937
		c-0.288,0.52-0.476,2.469-0.528,2.748c-0.052,0.279-5.676-1.319-4.677-5.022c-0.955-0.998-2.453-1.399-1.852-4.27
		c-0.418-1.254-0.979-2.759-0.314-4.096C156.388,58.97,156.391,57.283,158.023,55.235z"/>
	<path fill="#FFFFFF" d="M239.579,42.093V17.275c-1.424-3.195-3.966-6.317-7.078-8.432c-5.769,0.137-14.816,0.568-27.344,1.844
		c-2.924,2.686-8.057,9.348-7.106,20.858c1.479,17.894,9.013,21.864,12.989,23.537c7.101,2.989,21.338,2.81,28.208-7.508
		c0.199-0.301,0.371-0.617,0.551-0.929C239.665,43.897,239.579,42.093,239.579,42.093z M220.68,38.443
		c-4.903,0.379-5.951-1.623-6.373-7.078c-0.5-6.48,4.684-7.075,4.684-7.075c5.26-0.484,5.916,7.335,5.916,7.335
		S225.805,37.852,220.68,38.443z"/>
	<polygon opacity="0.3" fill="#231F20" enable-background="new    " points="240.086,30.5 238.917,53.168 238.583,68.243 
		196,75.125 241.729,70.604 	"/>
	<path fill="none" stroke="#231F20" stroke-width="0.5" stroke-linecap="round" stroke-linejoin="round" stroke-miterlimit="10" d="
		M176.5,18.125c0,0,10.375-2.75,18-3s24.875-2.562,24.875-2.562"/>
</g>
<g id="child">
	<g>
		<path opacity="0.3" fill="#231F20" enable-background="new    " d="M154.968,193.639c0,0-40.916,2.723-85.695-0.497
			c-13.737-0.979-18.379-1.114-18.379-1.114l26.818-9.565l91.31-4.775l-14.292,16.715"/>
		<path fill="#ECF1E5" stroke="#231F20" stroke-linecap="round" stroke-linejoin="round" stroke-miterlimit="10" d="
			M154.968,193.639l15.937-15.908l-2.823-23.418l-0.634-33.29l-15.397,8.012C152.05,129.035,145.396,154.884,154.968,193.639z"/>
		<path fill="#DFE8D4" stroke="#231F20" stroke-linecap="round" stroke-linejoin="round" stroke-miterlimit="10" d="M69.273,190.287
			l4.546-16.844l-1.348-47.669c0,0,62.459,3.157,79.58,3.261c0.057,7.225,0.566,30.687,0.566,30.687l2.352,33.918
			C154.968,193.639,124.375,196.792,69.273,190.287z"/>
		<path fill="#231F20" stroke="#231F20" stroke-linecap="round" stroke-linejoin="round" stroke-miterlimit="10" d="M72.471,125.773
			c0,0,16.176-1.029,21.181-3.667c5.009,0.468,43.504,3.308,73.796-1.084c-2.277,2.362-15.38,8.269-15.38,8.269
			S87.121,126.996,72.471,125.773z"/>
		
			<line fill="none" stroke="#231F20" stroke-width="0.5" stroke-linecap="round" stroke-linejoin="round" stroke-miterlimit="10" x1="154.169" y1="182.123" x2="159.713" y2="188.902"/>
		
			<line fill="none" stroke="#231F20" stroke-width="0.5" stroke-linecap="round" stroke-linejoin="round" stroke-miterlimit="10" x1="164.326" y1="184.298" x2="158.914" y2="176.612"/>
		
			<path fill="none" stroke="#231F20" stroke-width="0.5" stroke-linecap="round" stroke-linejoin="round" stroke-miterlimit="10" d="
			M156.941,167.223c0,0-0.638-0.103,3.475,3.88c4.106,3.975,7.666,9.445,7.666,9.445"/>
		
			<path fill="none" stroke="#231F20" stroke-width="0.5" stroke-linecap="round" stroke-linejoin="round" stroke-miterlimit="10" d="
			M170.196,171.855c0,0-4.539-4.085-7.308-8.283"/>
		
			<line fill="none" stroke="#231F20" stroke-width="0.5" stroke-linecap="round" stroke-linejoin="round" stroke-miterlimit="10" x1="160.735" y1="162.042" x2="152.47" y2="152.807"/>
		
			<line fill="none" stroke="#231F20" stroke-width="0.5" stroke-linecap="round" stroke-linejoin="round" stroke-miterlimit="10" x1="157.467" y1="147.357" x2="152.47" y2="140.356"/>
		
			<line fill="none" stroke="#231F20" stroke-width="0.5" stroke-linecap="round" stroke-linejoin="round" stroke-miterlimit="10" x1="154.968" y1="135.894" x2="152.278" y2="132.612"/>
		
			<path fill="none" stroke="#231F20" stroke-width="0.5" stroke-linecap="round" stroke-linejoin="round" stroke-miterlimit="10" d="
			M70.35,186.294c0,0,8.662,1.813,14.726,2.039"/>
		
			<path fill="none" stroke="#231F20" stroke-width="0.5" stroke-linecap="round" stroke-linejoin="round" stroke-miterlimit="10" d="
			M100.672,189.651c0,0,13.158,1.461,21.013,1.175c7.855-0.287,33.044-0.637,33.044-0.637"/>
		<polygon opacity="0.3" fill="#231F20" enable-background="new    " points="153.057,171.097 146.584,133.985 107.25,127.875 
			152.215,129.478 		"/>
	</g>
	<g>
		<path opacity="0.3" fill="#231F20" enable-background="new    " d="M322.108,176.533c0,0-27.454-1.152-67.205-7.217
			c-11.75-1.988-19.25-3.479-19.25-3.479l26.125-8.479l74.383,3.226L322.108,176.533"/>
		<path fill="#E5EEEF" stroke="#231F20" stroke-linecap="round" stroke-linejoin="round" stroke-miterlimit="10" d="
			M322.108,176.533l23.92-22.541v-19.486l1-34.857L319.19,111.93C319.19,111.929,312.536,137.781,322.108,176.533z"/>
		<path fill="#D3E3E5" stroke="#231F20" stroke-linecap="round" stroke-linejoin="round" stroke-miterlimit="10" d="
			M256.413,165.181l1.078-28.254l2.12-36.259c0,0,42.459,11.158,59.58,11.261c0.058,7.225,0.565,30.686,0.565,30.686l2.353,33.918
			C322.108,176.533,304.653,176.046,256.413,165.181z"/>
		<path fill="#231F20" stroke="#231F20" stroke-linecap="round" stroke-linejoin="round" stroke-miterlimit="10" d="M259.61,100.668
			c0,0,39.288-2.775,44.292-5.413c11.875,1.25,14.867,4.368,43.125,4.393c-2.276,2.363-27.819,12.539-27.819,12.539
			S285.965,108.817,259.61,100.668z"/>
		
			<line fill="none" stroke="#231F20" stroke-width="0.5" stroke-linecap="round" stroke-linejoin="round" stroke-miterlimit="10" x1="321.309" y1="165.016" x2="326.853" y2="171.796"/>
		
			<line fill="none" stroke="#231F20" stroke-width="0.5" stroke-linecap="round" stroke-linejoin="round" stroke-miterlimit="10" x1="331.465" y1="167.192" x2="326.053" y2="159.507"/>
		
			<path fill="none" stroke="#231F20" stroke-width="0.5" stroke-linecap="round" stroke-linejoin="round" stroke-miterlimit="10" d="
			M324.081,150.119c0,0-0.638-0.104,3.476,3.879c4.106,3.976,7.666,9.446,7.666,9.446"/>
		
			<path fill="none" stroke="#231F20" stroke-width="0.5" stroke-linecap="round" stroke-linejoin="round" stroke-miterlimit="10" d="
			M337.336,154.75c0,0-4.539-4.084-7.309-8.283"/>
		
			<line fill="none" stroke="#231F20" stroke-width="0.5" stroke-linecap="round" stroke-linejoin="round" stroke-miterlimit="10" x1="327.875" y1="144.938" x2="319.61" y2="135.703"/>
		
			<line fill="none" stroke="#231F20" stroke-width="0.5" stroke-linecap="round" stroke-linejoin="round" stroke-miterlimit="10" x1="324.606" y1="130.251" x2="319.61" y2="123.251"/>
		
			<line fill="none" stroke="#231F20" stroke-width="0.5" stroke-linecap="round" stroke-linejoin="round" stroke-miterlimit="10" x1="322.108" y1="118.789" x2="319.418" y2="115.507"/>
		
			<path fill="none" stroke="#231F20" stroke-width="0.5" stroke-linecap="round" stroke-linejoin="round" stroke-miterlimit="10" d="
			M256.648,159.005c0,0,1.72,2.507,7.783,2.731"/>
	</g>
	<path fill="#FFFFFF" d="M261.159,142.272c3.817-0.09,6.485-0.104,6.485-0.104s2.685-0.349,3.08,2.625
		c0.348,2.631,0.594,3.119,0.594,3.119s0.485,1.828,2.55,1.793c2.061-0.037,12.772-0.218,12.772-0.218s2.446,0.158,2.394-1.942
		c-0.06-2.104-0.181-6.637-0.181-6.637l7.369-0.539c0,0,1.657-0.404,1.347-2.768c-0.309-2.363-1.146-8.659-1.146-8.659
		s-0.207-2.179-3.278-1.872c-1.353,0.133-2.164,0.129-2.164,0.129s-1.173,0.104-1.149-0.968c0.113-5.549-1.285-14.215-1.285-14.215
		s-0.18-1.923-0.838-4.038c-7.352-1.539-14.379-3.187-19.623-4.463c-2.332,2.576-4.256,5.759-5.301,7.326
		c-0.695,1.039-2.64,3.545-3.75,6.25l-0.906,17.47l-0.283,7.595C258.875,142.188,260.31,142.292,261.159,142.272z M273.254,118.77
		c2.197-1.813,2.466,4.894,2.466,4.894c0.62,3.762-0.692,5.685-5.185,5.109C266.308,128.233,271.913,119.88,273.254,118.77z"/>
	<path opacity="0.3" fill="#231F20" enable-background="new    " d="M255.135,196.649c-0.377,0-0.744,0.015-1.102,0.037
		l-2.098-5.502l-7.662-9.114l-6.082-2.759c0.001-0.034,0.008-0.067,0.008-0.103c0-5.715-13.088-10.347-29.233-10.347
		c-16.145,0-29.235,4.632-29.235,10.347c0,0.166,0.014,0.33,0.035,0.494l-7.312,3.317l-7.662,9.114l-2.276,5.972
		c-0.27-0.013-0.544-0.022-0.824-0.022c-3.316,0-7.132,0.931-7.132,2.104s2.497,1.688,5.813,1.688s6.313-2.143,6.375-4.313
		c0,0,0.875-2.354,3.125-4.938s7.25-6.424,7.25-6.424l6.958-2.512c7.417,4.02,13.033,5.557,23.126,5.979
		c13.625,0.568,18.175-2.1,24.187-4.838l8.354,1.933c0,0,4.486,2.603,6.5,5.372c1.875,2.58,2.438,4.929,2.438,4.929
		c1,2.67,2.034,3.79,5.351,3.79c3.315,0,5.819-1.613,5.819-2.787S258.452,196.649,255.135,196.649z"/>
	<path fill="#FFFFFF" stroke="#231F20" stroke-linecap="round" stroke-linejoin="round" stroke-miterlimit="10" d="M202.642,147.818
		c0,0-20.341-2.059-26.764,1.153c-4.333,2-2.873,7.918-2.873,7.918s3.115,21.588,16.791,26.481
		c13.86,4.957,29.811,2.932,36.849,0.563c11.381-3.832,15.25-16.879,15.889-29.75c0.512-10.298-15.043-7.632-24.002-6.999
		C209.573,147.817,202.642,147.818,202.642,147.818z"/>
	<path fill="#E8C8B3" stroke="#231F20" stroke-linecap="round" stroke-linejoin="round" stroke-miterlimit="10" d="M185.57,118.068
		c0,0-6.423,10.311-6.423,33.637c15.044,5.916,42.428,6.086,56.963,0c1.014-7.269-1.184-22.818-5.916-33.637
		C225.292,119.421,191.993,120.773,185.57,118.068z"/>
	<path opacity="0.3" fill="#231F20" enable-background="new    " d="M180.638,133.559c0,0,24.802,20.403,51.896-2.892
		c-6.783-0.668-50.5-3.369-50.5-3.369L180.638,133.559z"/>
	<path fill="#E8C8B3" stroke="#231F20" stroke-linecap="round" stroke-linejoin="round" stroke-miterlimit="10" d="M181.452,171.169
		c0,0,4.51,1.552,3.525,6.953c-2.667,2.832-10.099,6.162-10.099,6.162l-10.083,10.588c0,0-3.167-4.168-5-4.834
		c2.833-3,10.042-11.416,10.042-11.416s-0.083-1.561,1.667-2.543c1.236-0.693,2.523-0.111,2.523-0.111L181.452,171.169z"/>
	<path fill="#E8C8B3" stroke="#231F20" stroke-linecap="round" stroke-linejoin="round" stroke-miterlimit="10" d="M152.2,182.748
		c0,0-2.28,0.041-2.78,2.416s2.053,3.225,3.25,2.084c1.583,1.642,2.208,4.771,3.229,10.473c0.587,3.283,6.795,4.77,9.67,0.77
		s1.601-9.926-0.774-14.801s-10.75-0.25-10.75-0.25S153.317,182.858,152.2,182.748z"/>
	<path fill="#E8C8B3" stroke="#231F20" stroke-linecap="round" stroke-linejoin="round" stroke-miterlimit="10" d="M159.249,182.328
		c0,0-0.729,0.281-2.292-0.844c-1.175-0.846-2.662-1.445-3.911,0.04c-1.343,1.597-1.252,3.821,0.573,4.878
		c2.293,1.329,3.032-1.445,3.032-1.445"/>
	<path fill="#E8C8B3" stroke="#231F20" stroke-linecap="round" stroke-linejoin="round" stroke-miterlimit="10" d="M162.264,181.891
		c0,0-0.782-0.013-1.807-1.644c-0.77-1.227-1.922-2.342-3.639-1.436c-1.845,0.975-2.598,3.068-1.305,4.734
		c1.625,2.095,3.353-0.198,3.353-0.198"/>
	<path fill="#E8C8B3" stroke="#231F20" stroke-linecap="round" stroke-linejoin="round" stroke-miterlimit="10" d="M164.794,183.688
		c0,0-0.979-0.858-0.502-3.483c0.259-1.424-0.414-3-2.352-3.125c-2.082-0.134-3.975,0.449-3.979,3.289
		c-0.005,3.319,4.25,2.793,4.25,2.793"/>
	<path fill="#E8C8B3" stroke="#231F20" stroke-linecap="round" stroke-linejoin="round" stroke-miterlimit="10" d="M153.382,186.309
		c0,0-0.285,0.692-0.712,0.938"/>
	<path fill="#E8C8B3" stroke="#231F20" stroke-linecap="round" stroke-linejoin="round" stroke-miterlimit="10" d="M235.062,170.001
		c0,0-4.511,1.553-3.524,6.953c2.666,2.834,10.098,6.162,10.098,6.162l10.084,10.588c0,0,3.166-4.166,5-4.832
		c-2.834-3-10.043-11.418-10.043-11.418s0.084-1.56-1.666-2.541c-1.236-0.695-2.523-0.113-2.523-0.113L235.062,170.001z"/>
	<path fill="#E8C8B3" stroke="#231F20" stroke-linecap="round" stroke-linejoin="round" stroke-miterlimit="10" d="M264.314,181.582
		c0,0,2.28,0.041,2.78,2.416s-2.053,3.225-3.25,2.084c-1.584,1.642-2.209,4.771-3.229,10.473c-0.588,3.283-6.796,4.77-9.671,0.77
		s-1.601-9.926,0.774-14.801s10.75-0.25,10.75-0.25S263.196,181.691,264.314,181.582z"/>
	<path fill="#E8C8B3" stroke="#231F20" stroke-linecap="round" stroke-linejoin="round" stroke-miterlimit="10" d="M258.225,181.958
		c0,0,0.42,0.317,1.593-1.211c0.882-1.148,2.132-2.151,3.757-1.088c1.746,1.143,2.299,3.299,0.856,4.836
		c-1.813,1.934-3.319-0.512-3.319-0.512"/>
	<path fill="#E8C8B3" stroke="#231F20" stroke-linecap="round" stroke-linejoin="round" stroke-miterlimit="10" d="M254.854,180.725
		c0,0,0.781-0.013,1.807-1.644c0.771-1.227,1.922-2.342,3.639-1.436c1.846,0.975,2.703,3.354,1.41,5.021
		c-1.625,2.094-3.938-0.146-3.938-0.146"/>
	<path fill="#E8C8B3" stroke="#231F20" stroke-linecap="round" stroke-linejoin="round" stroke-miterlimit="10" d="M251.719,182.522
		c0,0,0.979-0.858,0.502-3.483c-0.26-1.424,0.414-3,2.352-3.125c2.082-0.133,3.975,0.449,3.979,3.289
		c0.006,3.319-4.25,2.793-4.25,2.793"/>
	<path fill="#E8C8B3" stroke="#231F20" stroke-linecap="round" stroke-linejoin="round" stroke-miterlimit="10" d="M263.252,185.391
		c0,0,0.164,0.444,0.59,0.69"/>
	<path fill="#E8C8B3" stroke="#231F20" stroke-linecap="round" stroke-linejoin="round" stroke-miterlimit="10" d="M247.428,108.083
		c-2.707-0.484-4.646,0.056-5.725,0.529c-0.738-10.625-7.041-18.472-14.722-22.395c-7.944-4.057-15.057-4.923-25.454-3.61
		c0,0-19.02,2.746-24.104,17.611c-1.006,2.941-1.73,5.82-2.126,8.588c-1.254-1.015-3.771-2.517-6.42-1.015
		c-3.75,2.125-3.125,8.5,1.25,9c2.206,0.252,3.869-0.131,4.979-0.574c0.314,2.847,1.123,5.492,2.519,7.863
		c4.697,7.979,13.541,12.957,31.271,13.016c18.215,0.059,30.341-7.523,32.533-21.693c1.013,1.03,3.646,3.211,6.674,1.741
		C251.98,115.263,251.762,108.861,247.428,108.083z"/>
	<path fill="#E8C8B3" stroke="#231F20" stroke-linecap="round" stroke-linejoin="round" stroke-miterlimit="10" d="M204.51,94.852
		c0,0,0.431-4.506,3.663-4.807c3.42-0.318,4.462,2.182,4.587,4.807"/>
	<path fill="#E8C8B3" stroke="#231F20" stroke-linecap="round" stroke-linejoin="round" stroke-miterlimit="10" d="M204.045,102.304
		c0,0,5.888-5.113,9.917-3c2.543,1.333,2.084,4,2.084,4"/>
	<path fill="#E8C8B3" stroke="#231F20" stroke-linecap="round" stroke-linejoin="round" stroke-miterlimit="10" d="M204.51,110
		c0,0,0.313,1.729,2.354,2.043c2.479,0.379,2.84-0.967,2.84-0.967s0.877,1.971,3.175,1.07c1.863-0.729,1.817-2.146,1.817-2.146"/>
	<path fill="#E8C8B3" stroke="#231F20" stroke-linecap="round" stroke-linejoin="round" stroke-miterlimit="10" d="M196.942,90.721
		c0,0,1.75-1.583,3,0"/>
	<path fill="#E8C8B3" stroke="#231F20" stroke-linecap="round" stroke-linejoin="round" stroke-miterlimit="10" d="M217.137,91.073
		c0,0,1.75-1.583,3,0"/>
	<path fill="#EAD57A" stroke="#231F20" stroke-linecap="round" stroke-linejoin="round" stroke-miterlimit="10" d="M173.231,158.166
		c0,0,2.407,1.76,5.916,2.533c4.021,0.885,3.021,3.926,1.854,4.51c-0.716,0.357-3.103,1.097-6.301-1.274
		C173.938,161,173.231,158.166,173.231,158.166z"/>
	<path fill="#F2E6AF" stroke="#231F20" stroke-linecap="round" stroke-linejoin="round" stroke-miterlimit="10" d="M242.387,156.449
		c0,0-2.354,2.002-5.764,3.135c-3.906,1.299-2.596,4.219-1.373,4.678c0.748,0.283,3.485,0.621,6.42-2.071
		C242.124,159.193,242.387,156.449,242.387,156.449z"/>
	<path fill="none" stroke="#231F20" stroke-width="0.5" stroke-linecap="round" stroke-linejoin="round" stroke-miterlimit="10" d="
		M188.375,143c0,0,0.162,0.625,1.456,0"/>
	<path fill="none" stroke="#231F20" stroke-width="0.5" stroke-linecap="round" stroke-linejoin="round" stroke-miterlimit="10" d="
		M222.433,142.861c0,0,0.162,0.625,1.456,0"/>
	<path fill="none" stroke="#231F20" stroke-width="0.5" stroke-linecap="round" stroke-linejoin="round" stroke-miterlimit="10" d="
		M173.231,153.25c0,0,1.602,2.334,8.186,3.75c6.584,1.418,22.833,3.418,36.583,2.418"/>
	<path fill="none" stroke="#231F20" stroke-width="0.5" stroke-linecap="round" stroke-linejoin="round" stroke-miterlimit="10" d="
		M170.417,110c0,0-1.083,0.668-0.583,1.5c0.5,0.834,2.935,0.418,2.935,0.418"/>
	<path fill="none" stroke="#231F20" stroke-width="0.5" stroke-linecap="round" stroke-linejoin="round" stroke-miterlimit="10" d="
		M246.667,110.667c0,0,2.25,1.082,0.393,2.75c-0.963,0.863-2.643-0.426-2.643-0.426"/>
	<path fill="none" stroke="#231F20" stroke-width="0.5" stroke-linecap="round" stroke-linejoin="round" stroke-miterlimit="10" d="
		M159.249,194.873c0,0,1.334,0.961,1.584-2.039s-0.792-3.584-0.792-3.584"/>
	<path fill="none" stroke="#231F20" stroke-width="0.5" stroke-linecap="round" stroke-linejoin="round" stroke-miterlimit="10" d="
		M254.25,189.667c0,0-1,4.416,1.332,4.75"/>
	<path fill="none" stroke="#231F20" stroke-width="0.5" stroke-linecap="round" stroke-linejoin="round" stroke-miterlimit="10" d="
		M206.292,95.083c0,0,0.13-0.646,0.586-0.771c0.508-0.139,0.622,0.313,0.58,0.771"/>
	<path fill="none" stroke="#231F20" stroke-width="0.5" stroke-linecap="round" stroke-linejoin="round" stroke-miterlimit="10" d="
		M210.891,95.083c0,0-0.13-0.646-0.586-0.771c-0.508-0.139-0.622,0.313-0.58,0.771"/>
	<path opacity="0.3" fill="#231F20" enable-background="new    " d="M196.875,155.813c0,0-19.5-1.095-7.772,2.456
		c-5.31-0.456-15.872-3.018-15.872-5.581c0.623-2.032,1.694-4.388,5.669-4.694c0.1,1.506,0.247,3.713,0.247,3.713
		S188.375,154.75,196.875,155.813z"/>
	<path opacity="0.3" fill="#231F20" enable-background="new    " d="M175.161,116.687c0,0,3.848,12.438,24.781,14.938
		c20.934,2.5,27.324,0.348,36.191-4.326c-3.602,3.369-14.258,15.775-47.758,6.301C175.25,127.125,175.161,116.687,175.161,116.687z"
		/>
	<path opacity="0.3" fill="#231F20" enable-background="new    " d="M181.22,93.461c0,0,28.03-0.836,40.53,3.039
		c12.5,3.875,19.076,6.804,19.076,6.804s-4.058-17.875-26.13-20.964C192.625,79.251,181.22,93.461,181.22,93.461z"/>
	<path opacity="0.3" fill="#231F20" enable-background="new    " d="M230.938,175.896c0,0-0.25,3.139,0,5.559
		c1.307-0.556,2.915-2.604,2.915-2.604S231.188,176.979,230.938,175.896z"/>
	<path opacity="0.3" fill="#231F20" enable-background="new    " d="M154.563,190.011c0,0,1.75-0.137,2.375-1.198
		c1.188-0.563,3.063-1.146,3.563-2.386s0.625-2.866,0.625-2.866l-1.876-0.882c0,0-0.999,2.259-2.593,1.914
		c-0.406,0.906-1.545,3.021-3.038,1.808c-0.274,0.567-0.592,0.847-0.592,0.847S154.531,189.615,154.563,190.011z"/>
	<path opacity="0.3" fill="#231F20" enable-background="new    " d="M256.167,182.225c0,0-0.109,2.024,2.424,2.649
		c0.326,0.625,1.701,1.438,2.619,1.553c0.25,0.697,1.291,1.281,1.291,1.281l1.049-1.627l-0.674-0.69c0,0-2-1.187-2.041-1.83
		c-0.834-0.144-2.641-0.401-3.467-2.106C256.833,181.958,256.167,182.225,256.167,182.225z"/>
	<path fill="#FFFFFF" d="M82.688,126.813c-2.471,1.987-4.177,4.108-5.13,5.283c-1.058,1.297-2.344,4.264-4.224,7.987l0.708,26.961
		c3.931,0.291,7.541,0.592,7.541,0.592s3.047-0.105,3.171,3.271c0.112,2.987,0.335,3.559,0.335,3.559s0.351,2.102,2.666,2.285
		c2.314,0.178,14.343,1.115,14.343,1.115s2.727,0.438,2.891-1.924c0.157-2.363,0.505-7.458,0.505-7.458l8.319,0.181
		c0,0,1.899-0.278,1.804-2.959c-0.095-2.683-0.364-9.83-0.364-9.83s0-2.467-3.476-2.449c-1.531,0.005-2.44-0.086-2.44-0.086
		s-1.327-0.006-1.187-1.207c0.718-6.209,0.076-16.074,0.076-16.074s0.108-4.743-1.899-8.092
		C97.562,127.574,88.85,127.112,82.688,126.813z M86.252,152.927c-4.685-1.057,2.491-9.823,4.113-10.926
		c2.654-1.797,2.243,5.748,2.243,5.748C92.902,152.035,91.225,154.048,86.252,152.927z"/>
	<polygon opacity="0.3" fill="#231F20" enable-background="new    " points="320.196,153.992 314.778,115.507 269.111,103.721 
		319.354,112.373 	"/>
</g>
	</g>
</svg>
